<svg width="78" height="78" viewBox="0 0 78 78" fill="none" xmlns="http://www.w3.org/2000/svg">
<rect width="78" height="78" rx="39" fill="url(#paint0_linear_746_3127)"/>
<path d="M34.1714 55.3386C40.0473 61.1627 47.7289 60.7319 53.1532 55.3398C57.0183 51.532 58.0278 47.616 57.0891 43.0097C56.5096 39.4763 54.3936 35.4038 52.8319 32.4577C51.8477 30.5761 50.6244 28.1015 49.9154 27.244C49.1533 26.3275 47.9915 26.1812 47.0636 26.9155C45.9733 27.7826 45.902 28.9815 46.5366 30.7706L48.6157 36.5008C48.8039 36.9665 48.7804 37.2478 48.6082 37.4185C48.4116 37.6134 48.1608 37.644 47.8004 37.271L33.8523 23.4304C32.9223 22.5244 31.516 22.5244 30.602 23.423C29.7028 24.3217 29.7028 25.7302 30.6094 26.6288L40.9358 36.8566C40.5212 37.0736 40.0982 37.3149 39.6751 37.5952L27.8754 25.8998C26.9614 24.9938 25.5551 24.9938 24.6485 25.8998C23.7344 26.8143 23.7344 28.1996 24.6485 29.0983L36.2919 40.6619C36.0017 41.0349 35.6966 41.4079 35.4223 41.7967L24.6431 31.1127C23.7365 30.1983 22.3313 30.1909 21.4087 31.1054C20.518 32.004 20.5255 33.4125 21.4162 34.3111L33.1074 45.8833C32.9118 46.3964 32.7715 46.9021 32.6312 47.4152L24.4902 39.3304C23.5835 38.4244 22.1699 38.4244 21.2632 39.3156C20.3566 40.2374 20.3566 41.6302 21.2632 42.5447L34.1714 55.3386Z" fill="white"/>
<defs>
<linearGradient id="paint0_linear_746_3127" x1="0" y1="0" x2="82.9438" y2="5.66919" gradientUnits="userSpaceOnUse">
<stop stop-color="#8585FF"/>
<stop offset="1" stop-color="#6E6EEA"/>
</linearGradient>
</defs>
</svg>
