<svg width="78" height="78" viewBox="0 0 78 78" fill="none" xmlns="http://www.w3.org/2000/svg">
<rect width="78" height="78" rx="39" fill="url(#paint0_linear_746_3120)"/>
<path d="M48.0171 39.0004C48.0171 48.0025 40.6865 55.5184 31.9061 55.5184C23.1257 55.5184 15.7952 48.0025 15.7952 39.0004C15.7952 29.9981 23.0988 22.4824 31.8793 22.4824C40.6865 22.4824 48.0171 29.9981 48.0171 39.0004Z" fill="white"/>
<path d="M46.0941 55.5184C45.1173 55.5184 44.1584 55.4254 43.2255 55.2476C48.1747 51.5878 51.4402 45.6315 51.4402 39.0004C51.4402 32.3676 48.173 26.4098 43.2155 22.7502C44.1427 22.5744 45.096 22.4824 46.0673 22.4824C54.8745 22.4824 62.205 29.9981 62.205 39.0004C62.205 48.0025 54.8745 55.5184 46.0941 55.5184Z" fill="white"/>
<defs>
<linearGradient id="paint0_linear_746_3120" x1="0" y1="0" x2="82.9438" y2="5.66919" gradientUnits="userSpaceOnUse">
<stop stop-color="#8585FF"/>
<stop offset="1" stop-color="#6E6EEA"/>
</linearGradient>
</defs>
</svg>
