   <svg width="16" height="16" viewBox="0 0 16 16" fill="none"
                                    xmlns="http://www.w3.org/2000/svg">
                                    <g clip-path="url(#clip0_1204_2485)">
                                        <path
                                            d="M2.08325 2.66536C2.08325 2.34624 2.34747 2.08203 2.66659 2.08203H9.33325C9.65237 2.08203 9.91658 2.34624 9.91658 2.66536C9.91658 3.07958 10.2524 3.41536 10.6666 3.41536C11.0808 3.41536 11.4166 3.07958 11.4166 2.66536C11.4166 1.51782 10.4808 0.582031 9.33325 0.582031H2.66659C1.51904 0.582031 0.583252 1.51782 0.583252 2.66536V9.33203C0.583252 10.4796 1.51904 11.4154 2.66659 11.4154C3.0808 11.4154 3.41659 11.0796 3.41659 10.6654C3.41659 10.2512 3.0808 9.91536 2.66659 9.91536C2.34747 9.91536 2.08325 9.65115 2.08325 9.33203V2.66536Z"
                                            fill="#8585FF" />
                                        <path fill-rule="evenodd" clip-rule="evenodd"
                                            d="M6.66658 4.58203C5.51599 4.58203 4.58325 5.51477 4.58325 6.66536V13.332C4.58325 14.4826 5.51599 15.4154 6.66658 15.4154H13.3333C14.4838 15.4154 15.4166 14.4826 15.4166 13.332V6.66536C15.4166 5.51477 14.4838 4.58203 13.3333 4.58203H6.66658ZM6.08325 6.66536C6.08325 6.3432 6.34442 6.08203 6.66658 6.08203H13.3333C13.6554 6.08203 13.9166 6.3432 13.9166 6.66536V13.332C13.9166 13.6542 13.6554 13.9154 13.3333 13.9154H6.66658C6.34442 13.9154 6.08325 13.6542 6.08325 13.332V6.66536Z"
                                            fill="#8585FF" />
                                    </g>
                                    <defs>
                                        <clipPath id="clip0_1204_2485">
                                            <rect width="16" height="16" fill="white" />
                                        </clipPath>
                                    </defs>
                                </svg>