<svg width="14" height="14" viewBox="0 0 14 14" fill="none" xmlns="http://www.w3.org/2000/svg">
<path d="M4.134 10.1736C6.09153 12.1394 8.44804 13.6357 10.3537 13.6357C11.2001 13.6357 11.9537 13.3407 12.5488 12.6662C12.9067 12.2672 13.0954 11.8243 13.0954 11.3791C13.0954 11.0089 12.9567 10.6606 12.614 10.4186L10.6292 9.00245C10.3045 8.76494 10.0342 8.66393 9.79666 8.66393C9.48271 8.66393 9.21797 8.84138 8.91487 9.13895L8.44804 9.60578C8.37419 9.67956 8.28137 9.70679 8.19674 9.70679C8.09566 9.70679 7.99199 9.66577 7.92381 9.62776C7.5058 9.40145 6.80967 8.78132 6.16797 8.14523C5.53187 7.50355 4.91179 6.80742 4.68547 6.39503C4.64744 6.3212 4.60643 6.22315 4.60643 6.1165C4.60643 6.03187 4.63364 5.93902 4.70747 5.8652L5.17429 5.39837C5.47184 5.10082 5.65491 4.8305 5.65491 4.52215C5.65491 4.28463 5.54827 4.0143 5.31076 3.68395L3.9002 1.70477C3.66083 1.35914 3.2988 1.21484 2.91737 1.21484C2.47516 1.21484 2.03218 1.40091 1.64702 1.77005C0.989291 2.38192 0.699951 3.14107 0.699951 3.98187C0.699951 5.89317 2.17387 8.22167 4.134 10.1736Z" fill="#343457"/>
</svg>
